<svg xmlns="http://www.w3.org/2000/svg" version="1.1" xmlns:xlink="http://www.w3.org/1999/xlink" xmlns:svgjs="http://svgjs.com/svgjs" width="1440" height="560" preserveAspectRatio="none" viewBox="0 0 1440 560"><g mask="url(&quot;#SvgjsMask1008&quot;)" fill="none"><rect width="1440" height="560" x="0" y="0" fill="rgba(72, 12, 168, 1)"></rect><path d="M-47 393.41L-47 393.41" stroke="rgba(86, 11, 173, 1)" stroke-width="1.5"></path><path d="M-47 393.41L76.76 393.8" stroke="rgba(86, 11, 173, 1)" stroke-width="1.5"></path><path d="M-91.13 550.36L-91.13 550.36" stroke="rgba(86, 11, 173, 1)" stroke-width="1.5"></path><path d="M-91.13 550.36L-95.26 692.07" stroke="rgba(86, 11, 173, 1)" stroke-width="1.5"></path><path d="M-91.13 550.36L-47 393.41" stroke="rgba(86, 11, 173, 1)" stroke-width="1.5"></path><path d="M-91.13 550.36L87.85 490.83" stroke="rgba(86, 11, 173, 1)" stroke-width="1.5"></path><path d="M-95.26 692.07L-95.26 692.07" stroke="rgba(86, 11, 173, 1)" stroke-width="1.5"></path><path d="M-95.26 692.07L61.82 670.68" stroke="rgba(86, 11, 173, 1)" stroke-width="1.5"></path><path d="M-95.26 692.07L87.85 490.83" stroke="rgba(86, 11, 173, 1)" stroke-width="1.5"></path><path d="M-95.26 692.07L-47 393.41" stroke="rgba(86, 11, 173, 1)" stroke-width="1.5"></path><path d="M76.76 393.8L76.76 393.8" stroke="rgba(86, 11, 173, 1)" stroke-width="1.5"></path><path d="M76.76 393.8L87.85 490.83" stroke="rgba(86, 11, 173, 1)" stroke-width="1.5"></path><path d="M76.76 393.8L205.27 359.39" stroke="rgba(86, 11, 173, 1)" stroke-width="1.5"></path><path d="M76.76 393.8L195.47 503.43" stroke="rgba(86, 11, 173, 1)" stroke-width="1.5"></path><path d="M76.76 393.8L-91.13 550.36" stroke="rgba(86, 11, 173, 1)" stroke-width="1.5"></path><path d="M76.76 393.8L61.82 670.68" stroke="rgba(86, 11, 173, 1)" stroke-width="1.5"></path><path d="M87.85 490.83L87.85 490.83" stroke="rgba(86, 11, 173, 1)" stroke-width="1.5"></path><path d="M87.85 490.83L195.47 503.43" stroke="rgba(86, 11, 173, 1)" stroke-width="1.5"></path><path d="M87.85 490.83L-47 393.41" stroke="rgba(86, 11, 173, 1)" stroke-width="1.5"></path><path d="M87.85 490.83L205.27 359.39" stroke="rgba(86, 11, 173, 1)" stroke-width="1.5"></path><path d="M87.85 490.83L61.82 670.68" stroke="rgba(86, 11, 173, 1)" stroke-width="1.5"></path><path d="M61.82 670.68L61.82 670.68" stroke="rgba(86, 11, 173, 1)" stroke-width="1.5"></path><path d="M61.82 670.68L247.35 707.96" stroke="rgba(86, 11, 173, 1)" stroke-width="1.5"></path><path d="M205.27 359.39L205.27 359.39" stroke="rgba(86, 11, 173, 1)" stroke-width="1.5"></path><path d="M205.27 359.39L195.47 503.43" stroke="rgba(86, 11, 173, 1)" stroke-width="1.5"></path><path d="M205.27 359.39L363.99 348.15" stroke="rgba(86, 11, 173, 1)" stroke-width="1.5"></path><path d="M205.27 359.39L363.97 511.46" stroke="rgba(86, 11, 173, 1)" stroke-width="1.5"></path><path d="M195.47 503.43L195.47 503.43" stroke="rgba(86, 11, 173, 1)" stroke-width="1.5"></path><path d="M195.47 503.43L363.97 511.46" stroke="rgba(86, 11, 173, 1)" stroke-width="1.5"></path><path d="M195.47 503.43L247.35 707.96" stroke="rgba(86, 11, 173, 1)" stroke-width="1.5"></path><path d="M195.47 503.43L61.82 670.68" stroke="rgba(86, 11, 173, 1)" stroke-width="1.5"></path><path d="M247.35 707.96L247.35 707.96" stroke="rgba(86, 11, 173, 1)" stroke-width="1.5"></path><path d="M247.35 707.96L384.54 670.76" stroke="rgba(86, 11, 173, 1)" stroke-width="1.5"></path><path d="M247.35 707.96L363.97 511.46" stroke="rgba(86, 11, 173, 1)" stroke-width="1.5"></path><path d="M247.35 707.96L87.85 490.83" stroke="rgba(86, 11, 173, 1)" stroke-width="1.5"></path><path d="M247.35 707.96L510.47 639.34" stroke="rgba(86, 11, 173, 1)" stroke-width="1.5"></path><path d="M363.99 348.15L363.99 348.15" stroke="rgba(86, 11, 173, 1)" stroke-width="1.5"></path><path d="M363.99 348.15L495.74 408.14" stroke="rgba(86, 11, 173, 1)" stroke-width="1.5"></path><path d="M363.97 511.46L363.97 511.46" stroke="rgba(86, 11, 173, 1)" stroke-width="1.5"></path><path d="M363.97 511.46L506.87 546.91" stroke="rgba(86, 11, 173, 1)" stroke-width="1.5"></path><path d="M363.97 511.46L384.54 670.76" stroke="rgba(86, 11, 173, 1)" stroke-width="1.5"></path><path d="M363.97 511.46L363.99 348.15" stroke="rgba(86, 11, 173, 1)" stroke-width="1.5"></path><path d="M363.97 511.46L495.74 408.14" stroke="rgba(86, 11, 173, 1)" stroke-width="1.5"></path><path d="M384.54 670.76L384.54 670.76" stroke="rgba(86, 11, 173, 1)" stroke-width="1.5"></path><path d="M384.54 670.76L510.47 639.34" stroke="rgba(86, 11, 173, 1)" stroke-width="1.5"></path><path d="M495.74 408.14L495.74 408.14" stroke="rgba(86, 11, 173, 1)" stroke-width="1.5"></path><path d="M495.74 408.14L506.87 546.91" stroke="rgba(86, 11, 173, 1)" stroke-width="1.5"></path><path d="M506.87 546.91L506.87 546.91" stroke="rgba(86, 11, 173, 1)" stroke-width="1.5"></path><path d="M506.87 546.91L510.47 639.34" stroke="rgba(86, 11, 173, 1)" stroke-width="1.5"></path><path d="M506.87 546.91L661.45 540.38" stroke="rgba(86, 11, 173, 1)" stroke-width="1.5"></path><path d="M510.47 639.34L510.47 639.34" stroke="rgba(86, 11, 173, 1)" stroke-width="1.5"></path><path d="M510.47 639.34L657.07 683.08" stroke="rgba(86, 11, 173, 1)" stroke-width="1.5"></path><path d="M656.79 231.46L656.79 231.46" stroke="rgba(86, 11, 173, 1)" stroke-width="1.5"></path><path d="M656.79 231.46L706.08 352.36" stroke="rgba(86, 11, 173, 1)" stroke-width="1.5"></path><path d="M656.79 231.46L495.74 408.14" stroke="rgba(86, 11, 173, 1)" stroke-width="1.5"></path><path d="M656.79 231.46L949.2 209.57" stroke="rgba(86, 11, 173, 1)" stroke-width="1.5"></path><path d="M706.08 352.36L706.08 352.36" stroke="rgba(86, 11, 173, 1)" stroke-width="1.5"></path><path d="M706.08 352.36L799.24 497.26" stroke="rgba(86, 11, 173, 1)" stroke-width="1.5"></path><path d="M706.08 352.36L661.45 540.38" stroke="rgba(86, 11, 173, 1)" stroke-width="1.5"></path><path d="M706.08 352.36L495.74 408.14" stroke="rgba(86, 11, 173, 1)" stroke-width="1.5"></path><path d="M661.45 540.38L661.45 540.38" stroke="rgba(86, 11, 173, 1)" stroke-width="1.5"></path><path d="M661.45 540.38L657.07 683.08" stroke="rgba(86, 11, 173, 1)" stroke-width="1.5"></path><path d="M661.45 540.38L799.24 497.26" stroke="rgba(86, 11, 173, 1)" stroke-width="1.5"></path><path d="M657.07 683.08L657.07 683.08" stroke="rgba(86, 11, 173, 1)" stroke-width="1.5"></path><path d="M657.07 683.08L809.67 703.15" stroke="rgba(86, 11, 173, 1)" stroke-width="1.5"></path><path d="M657.07 683.08L506.87 546.91" stroke="rgba(86, 11, 173, 1)" stroke-width="1.5"></path><path d="M657.07 683.08L799.24 497.26" stroke="rgba(86, 11, 173, 1)" stroke-width="1.5"></path><path d="M799.24 497.26L799.24 497.26" stroke="rgba(86, 11, 173, 1)" stroke-width="1.5"></path><path d="M809.67 703.15L809.67 703.15" stroke="rgba(86, 11, 173, 1)" stroke-width="1.5"></path><path d="M809.67 703.15L1000.52 711.61" stroke="rgba(86, 11, 173, 1)" stroke-width="1.5"></path><path d="M809.67 703.15L799.24 497.26" stroke="rgba(86, 11, 173, 1)" stroke-width="1.5"></path><path d="M809.67 703.15L966.4 549.78" stroke="rgba(86, 11, 173, 1)" stroke-width="1.5"></path><path d="M809.67 703.15L661.45 540.38" stroke="rgba(86, 11, 173, 1)" stroke-width="1.5"></path><path d="M955.22 -89.51L955.22 -89.51" stroke="rgba(86, 11, 173, 1)" stroke-width="1.5"></path><path d="M955.22 -89.51L1137.87 -92.77" stroke="rgba(86, 11, 173, 1)" stroke-width="1.5"></path><path d="M955.22 -89.51L944.93 95.9" stroke="rgba(86, 11, 173, 1)" stroke-width="1.5"></path><path d="M955.22 -89.51L949.2 209.57" stroke="rgba(86, 11, 173, 1)" stroke-width="1.5"></path><path d="M955.22 -89.51L1262.92 -43.07" stroke="rgba(86, 11, 173, 1)" stroke-width="1.5"></path><path d="M955.22 -89.51L1087.72 232.28" stroke="rgba(86, 11, 173, 1)" stroke-width="1.5"></path><path d="M944.93 95.9L944.93 95.9" stroke="rgba(86, 11, 173, 1)" stroke-width="1.5"></path><path d="M944.93 95.9L949.2 209.57" stroke="rgba(86, 11, 173, 1)" stroke-width="1.5"></path><path d="M949.2 209.57L949.2 209.57" stroke="rgba(86, 11, 173, 1)" stroke-width="1.5"></path><path d="M949.2 209.57L1087.72 232.28" stroke="rgba(86, 11, 173, 1)" stroke-width="1.5"></path><path d="M949.2 209.57L998.62 369.96" stroke="rgba(86, 11, 173, 1)" stroke-width="1.5"></path><path d="M998.62 369.96L998.62 369.96" stroke="rgba(86, 11, 173, 1)" stroke-width="1.5"></path><path d="M998.62 369.96L1150.68 371.39" stroke="rgba(86, 11, 173, 1)" stroke-width="1.5"></path><path d="M998.62 369.96L1087.72 232.28" stroke="rgba(86, 11, 173, 1)" stroke-width="1.5"></path><path d="M998.62 369.96L966.4 549.78" stroke="rgba(86, 11, 173, 1)" stroke-width="1.5"></path><path d="M998.62 369.96L1104.74 552.81" stroke="rgba(86, 11, 173, 1)" stroke-width="1.5"></path><path d="M966.4 549.78L966.4 549.78" stroke="rgba(86, 11, 173, 1)" stroke-width="1.5"></path><path d="M966.4 549.78L1104.74 552.81" stroke="rgba(86, 11, 173, 1)" stroke-width="1.5"></path><path d="M966.4 549.78L1000.52 711.61" stroke="rgba(86, 11, 173, 1)" stroke-width="1.5"></path><path d="M966.4 549.78L799.24 497.26" stroke="rgba(86, 11, 173, 1)" stroke-width="1.5"></path><path d="M1000.52 711.61L1000.52 711.61" stroke="rgba(86, 11, 173, 1)" stroke-width="1.5"></path><path d="M1000.52 711.61L1152.84 679.81" stroke="rgba(86, 11, 173, 1)" stroke-width="1.5"></path><path d="M1000.52 711.61L1104.74 552.81" stroke="rgba(86, 11, 173, 1)" stroke-width="1.5"></path><path d="M1000.52 711.61L1247 674.88" stroke="rgba(86, 11, 173, 1)" stroke-width="1.5"></path><path d="M1137.87 -92.77L1137.87 -92.77" stroke="rgba(86, 11, 173, 1)" stroke-width="1.5"></path><path d="M1137.87 -92.77L1262.92 -43.07" stroke="rgba(86, 11, 173, 1)" stroke-width="1.5"></path><path d="M1087.72 232.28L1087.72 232.28" stroke="rgba(86, 11, 173, 1)" stroke-width="1.5"></path><path d="M1087.72 232.28L1150.68 371.39" stroke="rgba(86, 11, 173, 1)" stroke-width="1.5"></path><path d="M1087.72 232.28L1270.58 217.01" stroke="rgba(86, 11, 173, 1)" stroke-width="1.5"></path><path d="M1087.72 232.28L944.93 95.9" stroke="rgba(86, 11, 173, 1)" stroke-width="1.5"></path><path d="M1087.72 232.28L1262.8 345.16" stroke="rgba(86, 11, 173, 1)" stroke-width="1.5"></path><path d="M1150.68 371.39L1150.68 371.39" stroke="rgba(86, 11, 173, 1)" stroke-width="1.5"></path><path d="M1150.68 371.39L1262.8 345.16" stroke="rgba(86, 11, 173, 1)" stroke-width="1.5"></path><path d="M1104.74 552.81L1104.74 552.81" stroke="rgba(86, 11, 173, 1)" stroke-width="1.5"></path><path d="M1104.74 552.81L1152.84 679.81" stroke="rgba(86, 11, 173, 1)" stroke-width="1.5"></path><path d="M1104.74 552.81L1150.68 371.39" stroke="rgba(86, 11, 173, 1)" stroke-width="1.5"></path><path d="M1104.74 552.81L1247 674.88" stroke="rgba(86, 11, 173, 1)" stroke-width="1.5"></path><path d="M1152.84 679.81L1152.84 679.81" stroke="rgba(86, 11, 173, 1)" stroke-width="1.5"></path><path d="M1152.84 679.81L1247 674.88" stroke="rgba(86, 11, 173, 1)" stroke-width="1.5"></path><path d="M1262.92 -43.07L1262.92 -43.07" stroke="rgba(86, 11, 173, 1)" stroke-width="1.5"></path><path d="M1262.92 -43.07L1309.42 68.75" stroke="rgba(86, 11, 173, 1)" stroke-width="1.5"></path><path d="M1309.42 68.75L1309.42 68.75" stroke="rgba(86, 11, 173, 1)" stroke-width="1.5"></path><path d="M1309.42 68.75L1441.79 65.35" stroke="rgba(86, 11, 173, 1)" stroke-width="1.5"></path><path d="M1309.42 68.75L1270.58 217.01" stroke="rgba(86, 11, 173, 1)" stroke-width="1.5"></path><path d="M1309.42 68.75L1461.18 -38.61" stroke="rgba(86, 11, 173, 1)" stroke-width="1.5"></path><path d="M1270.58 217.01L1270.58 217.01" stroke="rgba(86, 11, 173, 1)" stroke-width="1.5"></path><path d="M1270.58 217.01L1262.8 345.16" stroke="rgba(86, 11, 173, 1)" stroke-width="1.5"></path><path d="M1270.58 217.01L1398.77 259.38" stroke="rgba(86, 11, 173, 1)" stroke-width="1.5"></path><path d="M1262.8 345.16L1262.8 345.16" stroke="rgba(86, 11, 173, 1)" stroke-width="1.5"></path><path d="M1262.8 345.16L1398.77 259.38" stroke="rgba(86, 11, 173, 1)" stroke-width="1.5"></path><path d="M1247 674.88L1247 674.88" stroke="rgba(86, 11, 173, 1)" stroke-width="1.5"></path><path d="M1247 674.88L1411.98 702.25" stroke="rgba(86, 11, 173, 1)" stroke-width="1.5"></path><path d="M1461.18 -38.61L1461.18 -38.61" stroke="rgba(86, 11, 173, 1)" stroke-width="1.5"></path><path d="M1461.18 -38.61L1441.79 65.35" stroke="rgba(86, 11, 173, 1)" stroke-width="1.5"></path><path d="M1461.18 -38.61L1557.94 -94.59" stroke="rgba(86, 11, 173, 1)" stroke-width="1.5"></path><path d="M1441.79 65.35L1441.79 65.35" stroke="rgba(86, 11, 173, 1)" stroke-width="1.5"></path><path d="M1441.79 65.35L1580.68 53.12" stroke="rgba(86, 11, 173, 1)" stroke-width="1.5"></path><path d="M1441.79 65.35L1557.94 -94.59" stroke="rgba(86, 11, 173, 1)" stroke-width="1.5"></path><path d="M1398.77 259.38L1398.77 259.38" stroke="rgba(86, 11, 173, 1)" stroke-width="1.5"></path><path d="M1398.77 259.38L1431.59 381.89" stroke="rgba(86, 11, 173, 1)" stroke-width="1.5"></path><path d="M1398.77 259.38L1574.22 248.65" stroke="rgba(86, 11, 173, 1)" stroke-width="1.5"></path><path d="M1398.77 259.38L1441.79 65.35" stroke="rgba(86, 11, 173, 1)" stroke-width="1.5"></path><path d="M1398.77 259.38L1309.42 68.75" stroke="rgba(86, 11, 173, 1)" stroke-width="1.5"></path><path d="M1431.59 381.89L1431.59 381.89" stroke="rgba(86, 11, 173, 1)" stroke-width="1.5"></path><path d="M1431.59 381.89L1422.1 543.99" stroke="rgba(86, 11, 173, 1)" stroke-width="1.5"></path><path d="M1431.59 381.89L1599.32 406.15" stroke="rgba(86, 11, 173, 1)" stroke-width="1.5"></path><path d="M1431.59 381.89L1262.8 345.16" stroke="rgba(86, 11, 173, 1)" stroke-width="1.5"></path><path d="M1422.1 543.99L1422.1 543.99" stroke="rgba(86, 11, 173, 1)" stroke-width="1.5"></path><path d="M1422.1 543.99L1547.9 552.16" stroke="rgba(86, 11, 173, 1)" stroke-width="1.5"></path><path d="M1422.1 543.99L1411.98 702.25" stroke="rgba(86, 11, 173, 1)" stroke-width="1.5"></path><path d="M1422.1 543.99L1566.36 691.84" stroke="rgba(86, 11, 173, 1)" stroke-width="1.5"></path><path d="M1411.98 702.25L1411.98 702.25" stroke="rgba(86, 11, 173, 1)" stroke-width="1.5"></path><path d="M1411.98 702.25L1566.36 691.84" stroke="rgba(86, 11, 173, 1)" stroke-width="1.5"></path><path d="M1557.94 -94.59L1557.94 -94.59" stroke="rgba(86, 11, 173, 1)" stroke-width="1.5"></path><path d="M1557.94 -94.59L1580.68 53.12" stroke="rgba(86, 11, 173, 1)" stroke-width="1.5"></path><path d="M1557.94 -94.59L1309.42 68.75" stroke="rgba(86, 11, 173, 1)" stroke-width="1.5"></path><path d="M1580.68 53.12L1580.68 53.12" stroke="rgba(86, 11, 173, 1)" stroke-width="1.5"></path><path d="M1580.68 53.12L1461.18 -38.61" stroke="rgba(86, 11, 173, 1)" stroke-width="1.5"></path><path d="M1580.68 53.12L1574.22 248.65" stroke="rgba(86, 11, 173, 1)" stroke-width="1.5"></path><path d="M1580.68 53.12L1309.42 68.75" stroke="rgba(86, 11, 173, 1)" stroke-width="1.5"></path><path d="M1574.22 248.65L1574.22 248.65" stroke="rgba(86, 11, 173, 1)" stroke-width="1.5"></path><path d="M1574.22 248.65L1599.32 406.15" stroke="rgba(86, 11, 173, 1)" stroke-width="1.5"></path><path d="M1574.22 248.65L1431.59 381.89" stroke="rgba(86, 11, 173, 1)" stroke-width="1.5"></path><path d="M1574.22 248.65L1441.79 65.35" stroke="rgba(86, 11, 173, 1)" stroke-width="1.5"></path><path d="M1574.22 248.65L1547.9 552.16" stroke="rgba(86, 11, 173, 1)" stroke-width="1.5"></path><path d="M1599.32 406.15L1599.32 406.15" stroke="rgba(86, 11, 173, 1)" stroke-width="1.5"></path><path d="M1599.32 406.15L1547.9 552.16" stroke="rgba(86, 11, 173, 1)" stroke-width="1.5"></path><path d="M1547.9 552.16L1547.9 552.16" stroke="rgba(86, 11, 173, 1)" stroke-width="1.5"></path><path d="M1547.9 552.16L1566.36 691.84" stroke="rgba(86, 11, 173, 1)" stroke-width="1.5"></path><path d="M1547.9 552.16L1411.98 702.25" stroke="rgba(86, 11, 173, 1)" stroke-width="1.5"></path><path d="M1547.9 552.16L1431.59 381.89" stroke="rgba(86, 11, 173, 1)" stroke-width="1.5"></path><path d="M1566.36 691.84L1566.36 691.84" stroke="rgba(86, 11, 173, 1)" stroke-width="1.5"></path><path d="M1566.36 691.84L1599.32 406.15" stroke="rgba(86, 11, 173, 1)" stroke-width="1.5"></path><path d="M1566.36 691.84L1247 674.88" stroke="rgba(86, 11, 173, 1)" stroke-width="1.5"></path><path d="M1566.36 691.84L1431.59 381.89" stroke="rgba(86, 11, 173, 1)" stroke-width="1.5"></path><circle r="5" cx="-47" cy="393.41" fill="rgba(86, 11, 173, 1)"></circle><circle r="5" cx="-91.13" cy="550.36" fill="rgba(86, 11, 173, 1)"></circle><circle r="5" cx="-95.26" cy="692.07" fill="rgba(86, 11, 173, 1)"></circle><circle r="5" cx="76.76" cy="393.8" fill="rgba(86, 11, 173, 1)"></circle><circle r="5" cx="87.85" cy="490.83" fill="rgba(86, 11, 173, 1)"></circle><circle r="5" cx="61.82" cy="670.68" fill="rgba(86, 11, 173, 1)"></circle><circle r="5" cx="205.27" cy="359.39" fill="rgba(86, 11, 173, 1)"></circle><circle r="5" cx="195.47" cy="503.43" fill="rgba(86, 11, 173, 1)"></circle><circle r="5" cx="247.35" cy="707.96" fill="rgba(86, 11, 173, 1)"></circle><circle r="5" cx="363.99" cy="348.15" fill="rgba(86, 11, 173, 1)"></circle><circle r="5" cx="363.97" cy="511.46" fill="rgba(86, 11, 173, 1)"></circle><circle r="5" cx="384.54" cy="670.76" fill="rgba(86, 11, 173, 1)"></circle><circle r="5" cx="495.74" cy="408.14" fill="rgba(86, 11, 173, 1)"></circle><circle r="5" cx="506.87" cy="546.91" fill="rgba(86, 11, 173, 1)"></circle><circle r="5" cx="510.47" cy="639.34" fill="rgba(86, 11, 173, 1)"></circle><circle r="5" cx="656.79" cy="231.46" fill="rgba(86, 11, 173, 1)"></circle><circle r="5" cx="706.08" cy="352.36" fill="rgba(86, 11, 173, 1)"></circle><circle r="5" cx="661.45" cy="540.38" fill="rgba(86, 11, 173, 1)"></circle><circle r="5" cx="657.07" cy="683.08" fill="rgba(86, 11, 173, 1)"></circle><circle r="5" cx="799.24" cy="497.26" fill="rgba(86, 11, 173, 1)"></circle><circle r="5" cx="809.67" cy="703.15" fill="rgba(86, 11, 173, 1)"></circle><circle r="5" cx="955.22" cy="-89.51" fill="rgba(86, 11, 173, 1)"></circle><circle r="5" cx="944.93" cy="95.9" fill="rgba(86, 11, 173, 1)"></circle><circle r="5" cx="949.2" cy="209.57" fill="rgba(86, 11, 173, 1)"></circle><circle r="5" cx="998.62" cy="369.96" fill="rgba(86, 11, 173, 1)"></circle><circle r="5" cx="966.4" cy="549.78" fill="rgba(86, 11, 173, 1)"></circle><circle r="5" cx="1000.52" cy="711.61" fill="rgba(86, 11, 173, 1)"></circle><circle r="5" cx="1137.87" cy="-92.77" fill="rgba(86, 11, 173, 1)"></circle><circle r="5" cx="1087.72" cy="232.28" fill="rgba(86, 11, 173, 1)"></circle><circle r="5" cx="1150.68" cy="371.39" fill="rgba(86, 11, 173, 1)"></circle><circle r="5" cx="1104.74" cy="552.81" fill="rgba(86, 11, 173, 1)"></circle><circle r="5" cx="1152.84" cy="679.81" fill="rgba(86, 11, 173, 1)"></circle><circle r="5" cx="1262.92" cy="-43.07" fill="rgba(86, 11, 173, 1)"></circle><circle r="5" cx="1309.42" cy="68.75" fill="rgba(86, 11, 173, 1)"></circle><circle r="5" cx="1270.58" cy="217.01" fill="rgba(86, 11, 173, 1)"></circle><circle r="5" cx="1262.8" cy="345.16" fill="rgba(86, 11, 173, 1)"></circle><circle r="5" cx="1247" cy="674.88" fill="rgba(86, 11, 173, 1)"></circle><circle r="5" cx="1461.18" cy="-38.61" fill="rgba(86, 11, 173, 1)"></circle><circle r="5" cx="1441.79" cy="65.35" fill="rgba(86, 11, 173, 1)"></circle><circle r="5" cx="1398.77" cy="259.38" fill="rgba(86, 11, 173, 1)"></circle><circle r="5" cx="1431.59" cy="381.89" fill="rgba(86, 11, 173, 1)"></circle><circle r="5" cx="1422.1" cy="543.99" fill="rgba(86, 11, 173, 1)"></circle><circle r="5" cx="1411.98" cy="702.25" fill="rgba(86, 11, 173, 1)"></circle><circle r="5" cx="1557.94" cy="-94.59" fill="rgba(86, 11, 173, 1)"></circle><circle r="5" cx="1580.68" cy="53.12" fill="rgba(86, 11, 173, 1)"></circle><circle r="5" cx="1574.22" cy="248.65" fill="rgba(86, 11, 173, 1)"></circle><circle r="5" cx="1599.32" cy="406.15" fill="rgba(86, 11, 173, 1)"></circle><circle r="5" cx="1547.9" cy="552.16" fill="rgba(86, 11, 173, 1)"></circle><circle r="5" cx="1566.36" cy="691.84" fill="rgba(86, 11, 173, 1)"></circle><path d="M83.32 655.6L83.32 655.6" stroke="hsl(276.20000000000005, 90.6%, 48.9%)" stroke-width="1.5"></path><path d="M83.32 655.6L105.58 516.35" stroke="hsl(276.20000000000005, 90.6%, 48.9%)" stroke-width="1.5"></path><path d="M83.32 655.6L-65.67 667.85" stroke="hsl(276.20000000000005, 90.6%, 48.9%)" stroke-width="1.5"></path><path d="M254.64 536.7L254.64 536.7" stroke="hsl(276.20000000000005, 90.6%, 48.9%)" stroke-width="1.5"></path><path d="M254.64 536.7L348.96 497.03" stroke="hsl(276.20000000000005, 90.6%, 48.9%)" stroke-width="1.5"></path><path d="M254.64 536.7L234.89 665.03" stroke="hsl(276.20000000000005, 90.6%, 48.9%)" stroke-width="1.5"></path><path d="M254.64 536.7L105.58 516.35" stroke="hsl(276.20000000000005, 90.6%, 48.9%)" stroke-width="1.5"></path><path d="M234.89 665.03L234.89 665.03" stroke="hsl(276.20000000000005, 90.6%, 48.9%)" stroke-width="1.5"></path><path d="M234.89 665.03L349.45 704.15" stroke="hsl(276.20000000000005, 90.6%, 48.9%)" stroke-width="1.5"></path><path d="M349.45 704.15L349.45 704.15" stroke="hsl(276.20000000000005, 90.6%, 48.9%)" stroke-width="1.5"></path><path d="M349.45 704.15L254.64 536.7" stroke="hsl(276.20000000000005, 90.6%, 48.9%)" stroke-width="1.5"></path><path d="M349.45 704.15L553.27 684.52" stroke="hsl(276.20000000000005, 90.6%, 48.9%)" stroke-width="1.5"></path><path d="M349.45 704.15L348.96 497.03" stroke="hsl(276.20000000000005, 90.6%, 48.9%)" stroke-width="1.5"></path><path d="M349.45 704.15L549.8 535.24" stroke="hsl(276.20000000000005, 90.6%, 48.9%)" stroke-width="1.5"></path><path d="M698 376.16L698 376.16" stroke="hsl(276.20000000000005, 90.6%, 48.9%)" stroke-width="1.5"></path><path d="M698 376.16L793.32 354.27" stroke="hsl(276.20000000000005, 90.6%, 48.9%)" stroke-width="1.5"></path><path d="M698 376.16L706.76 522.6" stroke="hsl(276.20000000000005, 90.6%, 48.9%)" stroke-width="1.5"></path><path d="M698 376.16L801.29 521.67" stroke="hsl(276.20000000000005, 90.6%, 48.9%)" stroke-width="1.5"></path><path d="M698 376.16L549.8 535.24" stroke="hsl(276.20000000000005, 90.6%, 48.9%)" stroke-width="1.5"></path><path d="M698 376.16L954.92 488.69" stroke="hsl(276.20000000000005, 90.6%, 48.9%)" stroke-width="1.5"></path><path d="M704.19 671.04L704.19 671.04" stroke="hsl(276.20000000000005, 90.6%, 48.9%)" stroke-width="1.5"></path><path d="M704.19 671.04L793.8 697.06" stroke="hsl(276.20000000000005, 90.6%, 48.9%)" stroke-width="1.5"></path><path d="M704.19 671.04L706.76 522.6" stroke="hsl(276.20000000000005, 90.6%, 48.9%)" stroke-width="1.5"></path><path d="M704.19 671.04L553.27 684.52" stroke="hsl(276.20000000000005, 90.6%, 48.9%)" stroke-width="1.5"></path><path d="M704.19 671.04L801.29 521.67" stroke="hsl(276.20000000000005, 90.6%, 48.9%)" stroke-width="1.5"></path><path d="M704.19 671.04L549.8 535.24" stroke="hsl(276.20000000000005, 90.6%, 48.9%)" stroke-width="1.5"></path><path d="M704.19 671.04L698 376.16" stroke="hsl(276.20000000000005, 90.6%, 48.9%)" stroke-width="1.5"></path><path d="M954.92 488.69L954.92 488.69" stroke="hsl(276.20000000000005, 90.6%, 48.9%)" stroke-width="1.5"></path><path d="M954.92 488.69L801.29 521.67" stroke="hsl(276.20000000000005, 90.6%, 48.9%)" stroke-width="1.5"></path><path d="M954.92 488.69L1127.8 489.59" stroke="hsl(276.20000000000005, 90.6%, 48.9%)" stroke-width="1.5"></path><path d="M954.92 488.69L1119.12 390.11" stroke="hsl(276.20000000000005, 90.6%, 48.9%)" stroke-width="1.5"></path><path d="M954.92 488.69L1010.23 689.06" stroke="hsl(276.20000000000005, 90.6%, 48.9%)" stroke-width="1.5"></path><path d="M954.92 488.69L793.32 354.27" stroke="hsl(276.20000000000005, 90.6%, 48.9%)" stroke-width="1.5"></path><path d="M954.92 488.69L1106.36 638.74" stroke="hsl(276.20000000000005, 90.6%, 48.9%)" stroke-width="1.5"></path><path d="M1279.64 394.08L1279.64 394.08" stroke="hsl(276.20000000000005, 90.6%, 48.9%)" stroke-width="1.5"></path><path d="M1279.64 394.08L1252.59 520.42" stroke="hsl(276.20000000000005, 90.6%, 48.9%)" stroke-width="1.5"></path><path d="M1279.64 394.08L1423.86 358.49" stroke="hsl(276.20000000000005, 90.6%, 48.9%)" stroke-width="1.5"></path><path d="M1279.64 394.08L1119.12 390.11" stroke="hsl(276.20000000000005, 90.6%, 48.9%)" stroke-width="1.5"></path><path d="M1279.64 394.08L1259.08 230.47" stroke="hsl(276.20000000000005, 90.6%, 48.9%)" stroke-width="1.5"></path><path d="M1404.24 -83.92L1404.24 -83.92" stroke="hsl(276.20000000000005, 90.6%, 48.9%)" stroke-width="1.5"></path><path d="M1404.24 -83.92L1410.94 44.55" stroke="hsl(276.20000000000005, 90.6%, 48.9%)" stroke-width="1.5"></path><path d="M1404.24 -83.92L1258.25 -58.05" stroke="hsl(276.20000000000005, 90.6%, 48.9%)" stroke-width="1.5"></path><path d="M1404.24 -83.92L1602.81 -47.99" stroke="hsl(276.20000000000005, 90.6%, 48.9%)" stroke-width="1.5"></path><path d="M1404.24 -83.92L1284.4 103.81" stroke="hsl(276.20000000000005, 90.6%, 48.9%)" stroke-width="1.5"></path><path d="M1404.24 -83.92L1572.13 68.44" stroke="hsl(276.20000000000005, 90.6%, 48.9%)" stroke-width="1.5"></path><path d="M1404.24 -83.92L1402.57 248.44" stroke="hsl(276.20000000000005, 90.6%, 48.9%)" stroke-width="1.5"></path><path d="M1423.86 358.49L1423.86 358.49" stroke="hsl(276.20000000000005, 90.6%, 48.9%)" stroke-width="1.5"></path><path d="M1423.86 358.49L1402.57 248.44" stroke="hsl(276.20000000000005, 90.6%, 48.9%)" stroke-width="1.5"></path><path d="M1456.03 561.11L1456.03 561.11" stroke="hsl(276.20000000000005, 90.6%, 48.9%)" stroke-width="1.5"></path><path d="M1456.03 561.11L1547.19 492.68" stroke="hsl(276.20000000000005, 90.6%, 48.9%)" stroke-width="1.5"></path><path d="M1456.03 561.11L1440.18 701.97" stroke="hsl(276.20000000000005, 90.6%, 48.9%)" stroke-width="1.5"></path><path d="M1456.03 561.11L1574.7 694.94" stroke="hsl(276.20000000000005, 90.6%, 48.9%)" stroke-width="1.5"></path><path d="M1456.03 561.11L1423.86 358.49" stroke="hsl(276.20000000000005, 90.6%, 48.9%)" stroke-width="1.5"></path><path d="M1456.03 561.11L1252.59 520.42" stroke="hsl(276.20000000000005, 90.6%, 48.9%)" stroke-width="1.5"></path><path d="M1577.61 200.93L1577.61 200.93" stroke="hsl(276.20000000000005, 90.6%, 48.9%)" stroke-width="1.5"></path><path d="M1577.61 200.93L1572.13 68.44" stroke="hsl(276.20000000000005, 90.6%, 48.9%)" stroke-width="1.5"></path><path d="M1577.61 200.93L1595.5 340.17" stroke="hsl(276.20000000000005, 90.6%, 48.9%)" stroke-width="1.5"></path><path d="M1577.61 200.93L1402.57 248.44" stroke="hsl(276.20000000000005, 90.6%, 48.9%)" stroke-width="1.5"></path><path d="M1577.61 200.93L1423.86 358.49" stroke="hsl(276.20000000000005, 90.6%, 48.9%)" stroke-width="1.5"></path><path d="M1577.61 200.93L1410.94 44.55" stroke="hsl(276.20000000000005, 90.6%, 48.9%)" stroke-width="1.5"></path><path d="M1577.61 200.93L1602.81 -47.99" stroke="hsl(276.20000000000005, 90.6%, 48.9%)" stroke-width="1.5"></path><path d="M-65.67 667.85L-65.67 667.85" stroke="hsl(276.20000000000005, 90.6%, 48.9%)" stroke-width="1.5"></path><path d="M-65.67 667.85L105.58 516.35" stroke="hsl(276.20000000000005, 90.6%, 48.9%)" stroke-width="1.5"></path><path d="M105.58 516.35L105.58 516.35" stroke="hsl(276.20000000000005, 90.6%, 48.9%)" stroke-width="1.5"></path><path d="M105.58 516.35L234.89 665.03" stroke="hsl(276.20000000000005, 90.6%, 48.9%)" stroke-width="1.5"></path><path d="M105.58 516.35L348.96 497.03" stroke="hsl(276.20000000000005, 90.6%, 48.9%)" stroke-width="1.5"></path><path d="M348.96 497.03L348.96 497.03" stroke="hsl(276.20000000000005, 90.6%, 48.9%)" stroke-width="1.5"></path><path d="M348.96 497.03L234.89 665.03" stroke="hsl(276.20000000000005, 90.6%, 48.9%)" stroke-width="1.5"></path><path d="M348.96 497.03L549.8 535.24" stroke="hsl(276.20000000000005, 90.6%, 48.9%)" stroke-width="1.5"></path><path d="M549.8 535.24L549.8 535.24" stroke="hsl(276.20000000000005, 90.6%, 48.9%)" stroke-width="1.5"></path><path d="M549.8 535.24L553.27 684.52" stroke="hsl(276.20000000000005, 90.6%, 48.9%)" stroke-width="1.5"></path><path d="M549.8 535.24L706.76 522.6" stroke="hsl(276.20000000000005, 90.6%, 48.9%)" stroke-width="1.5"></path><path d="M553.27 684.52L553.27 684.52" stroke="hsl(276.20000000000005, 90.6%, 48.9%)" stroke-width="1.5"></path><path d="M553.27 684.52L706.76 522.6" stroke="hsl(276.20000000000005, 90.6%, 48.9%)" stroke-width="1.5"></path><path d="M553.27 684.52L793.8 697.06" stroke="hsl(276.20000000000005, 90.6%, 48.9%)" stroke-width="1.5"></path><path d="M706.76 522.6L706.76 522.6" stroke="hsl(276.20000000000005, 90.6%, 48.9%)" stroke-width="1.5"></path><path d="M706.76 522.6L801.29 521.67" stroke="hsl(276.20000000000005, 90.6%, 48.9%)" stroke-width="1.5"></path><path d="M706.76 522.6L793.32 354.27" stroke="hsl(276.20000000000005, 90.6%, 48.9%)" stroke-width="1.5"></path><path d="M793.32 354.27L793.32 354.27" stroke="hsl(276.20000000000005, 90.6%, 48.9%)" stroke-width="1.5"></path><path d="M793.32 354.27L801.29 521.67" stroke="hsl(276.20000000000005, 90.6%, 48.9%)" stroke-width="1.5"></path><path d="M801.29 521.67L801.29 521.67" stroke="hsl(276.20000000000005, 90.6%, 48.9%)" stroke-width="1.5"></path><path d="M801.29 521.67L793.8 697.06" stroke="hsl(276.20000000000005, 90.6%, 48.9%)" stroke-width="1.5"></path><path d="M793.8 697.06L793.8 697.06" stroke="hsl(276.20000000000005, 90.6%, 48.9%)" stroke-width="1.5"></path><path d="M1010.23 689.06L1010.23 689.06" stroke="hsl(276.20000000000005, 90.6%, 48.9%)" stroke-width="1.5"></path><path d="M1010.23 689.06L1106.36 638.74" stroke="hsl(276.20000000000005, 90.6%, 48.9%)" stroke-width="1.5"></path><path d="M1113.11 245.35L1113.11 245.35" stroke="hsl(276.20000000000005, 90.6%, 48.9%)" stroke-width="1.5"></path><path d="M1113.11 245.35L1119.12 390.11" stroke="hsl(276.20000000000005, 90.6%, 48.9%)" stroke-width="1.5"></path><path d="M1113.11 245.35L1259.08 230.47" stroke="hsl(276.20000000000005, 90.6%, 48.9%)" stroke-width="1.5"></path><path d="M1113.11 245.35L1284.4 103.81" stroke="hsl(276.20000000000005, 90.6%, 48.9%)" stroke-width="1.5"></path><path d="M1119.12 390.11L1119.12 390.11" stroke="hsl(276.20000000000005, 90.6%, 48.9%)" stroke-width="1.5"></path><path d="M1119.12 390.11L1127.8 489.59" stroke="hsl(276.20000000000005, 90.6%, 48.9%)" stroke-width="1.5"></path><path d="M1119.12 390.11L1252.59 520.42" stroke="hsl(276.20000000000005, 90.6%, 48.9%)" stroke-width="1.5"></path><path d="M1119.12 390.11L1259.08 230.47" stroke="hsl(276.20000000000005, 90.6%, 48.9%)" stroke-width="1.5"></path><path d="M1127.8 489.59L1127.8 489.59" stroke="hsl(276.20000000000005, 90.6%, 48.9%)" stroke-width="1.5"></path><path d="M1127.8 489.59L1252.59 520.42" stroke="hsl(276.20000000000005, 90.6%, 48.9%)" stroke-width="1.5"></path><path d="M1127.8 489.59L1106.36 638.74" stroke="hsl(276.20000000000005, 90.6%, 48.9%)" stroke-width="1.5"></path><path d="M1127.8 489.59L1279.64 394.08" stroke="hsl(276.20000000000005, 90.6%, 48.9%)" stroke-width="1.5"></path><path d="M1127.8 489.59L1010.23 689.06" stroke="hsl(276.20000000000005, 90.6%, 48.9%)" stroke-width="1.5"></path><path d="M1106.36 638.74L1106.36 638.74" stroke="hsl(276.20000000000005, 90.6%, 48.9%)" stroke-width="1.5"></path><path d="M1106.36 638.74L1262.24 704.05" stroke="hsl(276.20000000000005, 90.6%, 48.9%)" stroke-width="1.5"></path><path d="M1106.36 638.74L1252.59 520.42" stroke="hsl(276.20000000000005, 90.6%, 48.9%)" stroke-width="1.5"></path><path d="M1258.25 -58.05L1258.25 -58.05" stroke="hsl(276.20000000000005, 90.6%, 48.9%)" stroke-width="1.5"></path><path d="M1258.25 -58.05L1284.4 103.81" stroke="hsl(276.20000000000005, 90.6%, 48.9%)" stroke-width="1.5"></path><path d="M1284.4 103.81L1284.4 103.81" stroke="hsl(276.20000000000005, 90.6%, 48.9%)" stroke-width="1.5"></path><path d="M1284.4 103.81L1259.08 230.47" stroke="hsl(276.20000000000005, 90.6%, 48.9%)" stroke-width="1.5"></path><path d="M1284.4 103.81L1410.94 44.55" stroke="hsl(276.20000000000005, 90.6%, 48.9%)" stroke-width="1.5"></path><path d="M1284.4 103.81L1402.57 248.44" stroke="hsl(276.20000000000005, 90.6%, 48.9%)" stroke-width="1.5"></path><path d="M1259.08 230.47L1259.08 230.47" stroke="hsl(276.20000000000005, 90.6%, 48.9%)" stroke-width="1.5"></path><path d="M1259.08 230.47L1402.57 248.44" stroke="hsl(276.20000000000005, 90.6%, 48.9%)" stroke-width="1.5"></path><path d="M1252.59 520.42L1252.59 520.42" stroke="hsl(276.20000000000005, 90.6%, 48.9%)" stroke-width="1.5"></path><path d="M1252.59 520.42L1262.24 704.05" stroke="hsl(276.20000000000005, 90.6%, 48.9%)" stroke-width="1.5"></path><path d="M1262.24 704.05L1262.24 704.05" stroke="hsl(276.20000000000005, 90.6%, 48.9%)" stroke-width="1.5"></path><path d="M1262.24 704.05L1440.18 701.97" stroke="hsl(276.20000000000005, 90.6%, 48.9%)" stroke-width="1.5"></path><path d="M1262.24 704.05L1456.03 561.11" stroke="hsl(276.20000000000005, 90.6%, 48.9%)" stroke-width="1.5"></path><path d="M1262.24 704.05L1010.23 689.06" stroke="hsl(276.20000000000005, 90.6%, 48.9%)" stroke-width="1.5"></path><path d="M1262.24 704.05L1127.8 489.59" stroke="hsl(276.20000000000005, 90.6%, 48.9%)" stroke-width="1.5"></path><path d="M1410.94 44.55L1410.94 44.55" stroke="hsl(276.20000000000005, 90.6%, 48.9%)" stroke-width="1.5"></path><path d="M1410.94 44.55L1572.13 68.44" stroke="hsl(276.20000000000005, 90.6%, 48.9%)" stroke-width="1.5"></path><path d="M1410.94 44.55L1258.25 -58.05" stroke="hsl(276.20000000000005, 90.6%, 48.9%)" stroke-width="1.5"></path><path d="M1410.94 44.55L1402.57 248.44" stroke="hsl(276.20000000000005, 90.6%, 48.9%)" stroke-width="1.5"></path><path d="M1410.94 44.55L1602.81 -47.99" stroke="hsl(276.20000000000005, 90.6%, 48.9%)" stroke-width="1.5"></path><path d="M1402.57 248.44L1402.57 248.44" stroke="hsl(276.20000000000005, 90.6%, 48.9%)" stroke-width="1.5"></path><path d="M1440.18 701.97L1440.18 701.97" stroke="hsl(276.20000000000005, 90.6%, 48.9%)" stroke-width="1.5"></path><path d="M1440.18 701.97L1574.7 694.94" stroke="hsl(276.20000000000005, 90.6%, 48.9%)" stroke-width="1.5"></path><path d="M1602.81 -47.99L1602.81 -47.99" stroke="hsl(276.20000000000005, 90.6%, 48.9%)" stroke-width="1.5"></path><path d="M1602.81 -47.99L1572.13 68.44" stroke="hsl(276.20000000000005, 90.6%, 48.9%)" stroke-width="1.5"></path><path d="M1572.13 68.44L1572.13 68.44" stroke="hsl(276.20000000000005, 90.6%, 48.9%)" stroke-width="1.5"></path><path d="M1595.5 340.17L1595.5 340.17" stroke="hsl(276.20000000000005, 90.6%, 48.9%)" stroke-width="1.5"></path><path d="M1595.5 340.17L1547.19 492.68" stroke="hsl(276.20000000000005, 90.6%, 48.9%)" stroke-width="1.5"></path><path d="M1595.5 340.17L1423.86 358.49" stroke="hsl(276.20000000000005, 90.6%, 48.9%)" stroke-width="1.5"></path><path d="M1595.5 340.17L1402.57 248.44" stroke="hsl(276.20000000000005, 90.6%, 48.9%)" stroke-width="1.5"></path><path d="M1595.5 340.17L1456.03 561.11" stroke="hsl(276.20000000000005, 90.6%, 48.9%)" stroke-width="1.5"></path><path d="M1547.19 492.68L1547.19 492.68" stroke="hsl(276.20000000000005, 90.6%, 48.9%)" stroke-width="1.5"></path><path d="M1547.19 492.68L1423.86 358.49" stroke="hsl(276.20000000000005, 90.6%, 48.9%)" stroke-width="1.5"></path><path d="M1547.19 492.68L1574.7 694.94" stroke="hsl(276.20000000000005, 90.6%, 48.9%)" stroke-width="1.5"></path><path d="M1574.7 694.94L1574.7 694.94" stroke="hsl(276.20000000000005, 90.6%, 48.9%)" stroke-width="1.5"></path><circle r="25" cx="83.32" cy="655.6" fill="url(#SvgjsRadialGradient1009)"></circle><circle r="25" cx="254.64" cy="536.7" fill="url(#SvgjsRadialGradient1009)"></circle><circle r="25" cx="234.89" cy="665.03" fill="url(#SvgjsRadialGradient1009)"></circle><circle r="25" cx="349.45" cy="704.15" fill="url(#SvgjsRadialGradient1009)"></circle><circle r="25" cx="698" cy="376.16" fill="url(#SvgjsRadialGradient1009)"></circle><circle r="25" cx="704.19" cy="671.04" fill="url(#SvgjsRadialGradient1009)"></circle><circle r="25" cx="954.92" cy="488.69" fill="url(#SvgjsRadialGradient1009)"></circle><circle r="25" cx="1279.64" cy="394.08" fill="url(#SvgjsRadialGradient1009)"></circle><circle r="25" cx="1404.24" cy="-83.92" fill="url(#SvgjsRadialGradient1009)"></circle><circle r="25" cx="1423.86" cy="358.49" fill="url(#SvgjsRadialGradient1009)"></circle><circle r="25" cx="1456.03" cy="561.11" fill="url(#SvgjsRadialGradient1009)"></circle><circle r="25" cx="1577.61" cy="200.93" fill="url(#SvgjsRadialGradient1009)"></circle><circle r="5" cx="-65.67" cy="667.85" fill="#b984db"></circle><circle r="5" cx="105.58" cy="516.35" fill="#b984db"></circle><circle r="5" cx="348.96" cy="497.03" fill="#b984db"></circle><circle r="5" cx="549.8" cy="535.24" fill="#b984db"></circle><circle r="5" cx="553.27" cy="684.52" fill="#b984db"></circle><circle r="5" cx="706.76" cy="522.6" fill="#b984db"></circle><circle r="5" cx="793.32" cy="354.27" fill="#b984db"></circle><circle r="5" cx="801.29" cy="521.67" fill="#b984db"></circle><circle r="5" cx="793.8" cy="697.06" fill="#b984db"></circle><circle r="5" cx="1010.23" cy="689.06" fill="#b984db"></circle><circle r="5" cx="1113.11" cy="245.35" fill="#b984db"></circle><circle r="5" cx="1119.12" cy="390.11" fill="#b984db"></circle><circle r="5" cx="1127.8" cy="489.59" fill="#b984db"></circle><circle r="5" cx="1106.36" cy="638.74" fill="#b984db"></circle><circle r="5" cx="1258.25" cy="-58.05" fill="#b984db"></circle><circle r="5" cx="1284.4" cy="103.81" fill="#b984db"></circle><circle r="5" cx="1259.08" cy="230.47" fill="#b984db"></circle><circle r="5" cx="1252.59" cy="520.42" fill="#b984db"></circle><circle r="5" cx="1262.24" cy="704.05" fill="#b984db"></circle><circle r="5" cx="1410.94" cy="44.55" fill="#b984db"></circle><circle r="5" cx="1402.57" cy="248.44" fill="#b984db"></circle><circle r="5" cx="1440.18" cy="701.97" fill="#b984db"></circle><circle r="5" cx="1602.81" cy="-47.99" fill="#b984db"></circle><circle r="5" cx="1572.13" cy="68.44" fill="#b984db"></circle><circle r="5" cx="1595.5" cy="340.17" fill="#b984db"></circle><circle r="5" cx="1547.19" cy="492.68" fill="#b984db"></circle><circle r="5" cx="1574.7" cy="694.94" fill="#b984db"></circle></g><defs><mask id="SvgjsMask1008"><rect width="1440" height="560" fill="#ffffff"></rect></mask><radialGradient id="SvgjsRadialGradient1009"><stop stop-color="#ffffff" offset="0.1"></stop><stop stop-color="rgba(114, 9, 183, 1)" offset="0.2"></stop><stop stop-color="rgba(114, 9, 183, 0)" offset="1"></stop></radialGradient></defs></svg>