<svg xmlns="http://www.w3.org/2000/svg" version="1.1" xmlns:xlink="http://www.w3.org/1999/xlink" xmlns:svgjs="http://svgjs.com/svgjs" width="1440" height="560" preserveAspectRatio="none" viewBox="0 0 1440 560"><g mask="url(&quot;#SvgjsMask1003&quot;)" fill="none"><rect width="1440" height="560" x="0" y="0" fill="rgba(58, 12, 163, 1)"></rect><path d="M33.73 -74.4L98.68 -36.9L98.68 38.1L33.73 75.6L-31.22 38.1L-31.22 -36.9zM33.73 150.6L98.68 188.1L98.68 263.1L33.73 300.6L-31.22 263.1L-31.22 188.1zM98.68 488.1L163.64 525.6L163.64 600.6L98.68 638.1L33.73 600.6L33.73 525.6zM228.59 38.1L293.55 75.6L293.55 150.6L228.59 188.1L163.64 150.6L163.64 75.6zM163.64 375.6L228.59 413.1L228.59 488.1L163.64 525.6L98.68 488.1L98.68 413.1zM293.55 -74.4L358.5 -36.9L358.5 38.1L293.55 75.6L228.59 38.1L228.59 -36.9zM358.5 38.1L423.45 75.6L423.45 150.6L358.5 188.1L293.55 150.6L293.55 75.6zM293.55 150.6L358.5 188.1L358.5 263.1L293.55 300.6L228.59 263.1L228.59 188.1zM293.55 375.6L358.5 413.1L358.5 488.1L293.55 525.6L228.59 488.1L228.59 413.1zM423.45 -74.4L488.41 -36.9L488.41 38.1L423.45 75.6L358.5 38.1L358.5 -36.9zM488.41 488.1L553.36 525.6L553.36 600.6L488.41 638.1L423.45 600.6L423.45 525.6zM553.36 -74.4L618.31 -36.9L618.31 38.1L553.36 75.6L488.41 38.1L488.41 -36.9zM618.31 488.1L683.27 525.6L683.27 600.6L618.31 638.1L553.36 600.6L553.36 525.6zM748.22 263.1L813.18 300.6L813.18 375.6L748.22 413.1L683.27 375.6L683.27 300.6zM878.13 38.1L943.08 75.6L943.08 150.6L878.13 188.1L813.17 150.6L813.17 75.6zM943.08 -74.4L1008.04 -36.9L1008.04 38.1L943.08 75.6L878.13 38.1L878.13 -36.9zM943.08 150.6L1008.04 188.1L1008.04 263.1L943.08 300.6L878.13 263.1L878.13 188.1zM1008.04 263.1L1072.99 300.6L1072.99 375.6L1008.04 413.1L943.08 375.6L943.08 300.6zM943.08 375.6L1008.04 413.1L1008.04 488.1L943.08 525.6L878.13 488.1L878.13 413.1zM1072.99 150.6L1137.94 188.1L1137.94 263.1L1072.99 300.6L1008.04 263.1L1008.04 188.1zM1202.9 -74.4L1267.85 -36.9L1267.85 38.1L1202.9 75.6L1137.94 38.1L1137.94 -36.9zM1202.9 150.6L1267.85 188.1L1267.85 263.1L1202.9 300.6L1137.94 263.1L1137.94 188.1zM1267.85 263.1L1332.8 300.6L1332.8 375.6L1267.85 413.1L1202.9 375.6L1202.9 300.6zM1202.9 375.6L1267.85 413.1L1267.85 488.1L1202.9 525.6L1137.94 488.1L1137.94 413.1zM1267.85 488.1L1332.8 525.6L1332.8 600.6L1267.85 638.1L1202.9 600.6L1202.9 525.6zM1527.67 38.1L1592.62 75.6L1592.62 150.6L1527.67 188.1L1462.71 150.6L1462.71 75.6zM1462.71 150.6L1527.67 188.1L1527.67 263.1L1462.71 300.6L1397.76 263.1L1397.76 188.1z" stroke="rgba(67, 97, 238, 1)" stroke-width="2"></path><path d="M26.23 -74.4 a7.5 7.5 0 1 0 15 0 a7.5 7.5 0 1 0 -15 0zM91.18 -36.9 a7.5 7.5 0 1 0 15 0 a7.5 7.5 0 1 0 -15 0zM91.18 38.1 a7.5 7.5 0 1 0 15 0 a7.5 7.5 0 1 0 -15 0zM26.23 75.6 a7.5 7.5 0 1 0 15 0 a7.5 7.5 0 1 0 -15 0zM-38.72 38.1 a7.5 7.5 0 1 0 15 0 a7.5 7.5 0 1 0 -15 0zM-38.72 -36.9 a7.5 7.5 0 1 0 15 0 a7.5 7.5 0 1 0 -15 0zM26.23 150.6 a7.5 7.5 0 1 0 15 0 a7.5 7.5 0 1 0 -15 0zM91.18 188.1 a7.5 7.5 0 1 0 15 0 a7.5 7.5 0 1 0 -15 0zM91.18 263.1 a7.5 7.5 0 1 0 15 0 a7.5 7.5 0 1 0 -15 0zM26.23 300.6 a7.5 7.5 0 1 0 15 0 a7.5 7.5 0 1 0 -15 0zM-38.72 263.1 a7.5 7.5 0 1 0 15 0 a7.5 7.5 0 1 0 -15 0zM-38.72 188.1 a7.5 7.5 0 1 0 15 0 a7.5 7.5 0 1 0 -15 0zM91.18 488.1 a7.5 7.5 0 1 0 15 0 a7.5 7.5 0 1 0 -15 0zM156.14 525.6 a7.5 7.5 0 1 0 15 0 a7.5 7.5 0 1 0 -15 0zM156.14 600.6 a7.5 7.5 0 1 0 15 0 a7.5 7.5 0 1 0 -15 0zM91.18 638.1 a7.5 7.5 0 1 0 15 0 a7.5 7.5 0 1 0 -15 0zM26.23 600.6 a7.5 7.5 0 1 0 15 0 a7.5 7.5 0 1 0 -15 0zM26.23 525.6 a7.5 7.5 0 1 0 15 0 a7.5 7.5 0 1 0 -15 0zM221.09 38.1 a7.5 7.5 0 1 0 15 0 a7.5 7.5 0 1 0 -15 0zM286.05 75.6 a7.5 7.5 0 1 0 15 0 a7.5 7.5 0 1 0 -15 0zM286.05 150.6 a7.5 7.5 0 1 0 15 0 a7.5 7.5 0 1 0 -15 0zM221.09 188.1 a7.5 7.5 0 1 0 15 0 a7.5 7.5 0 1 0 -15 0zM156.14 150.6 a7.5 7.5 0 1 0 15 0 a7.5 7.5 0 1 0 -15 0zM156.14 75.6 a7.5 7.5 0 1 0 15 0 a7.5 7.5 0 1 0 -15 0zM156.14 375.6 a7.5 7.5 0 1 0 15 0 a7.5 7.5 0 1 0 -15 0zM221.09 413.1 a7.5 7.5 0 1 0 15 0 a7.5 7.5 0 1 0 -15 0zM221.09 488.1 a7.5 7.5 0 1 0 15 0 a7.5 7.5 0 1 0 -15 0zM91.18 413.1 a7.5 7.5 0 1 0 15 0 a7.5 7.5 0 1 0 -15 0zM286.05 -74.4 a7.5 7.5 0 1 0 15 0 a7.5 7.5 0 1 0 -15 0zM351 -36.9 a7.5 7.5 0 1 0 15 0 a7.5 7.5 0 1 0 -15 0zM351 38.1 a7.5 7.5 0 1 0 15 0 a7.5 7.5 0 1 0 -15 0zM221.09 -36.9 a7.5 7.5 0 1 0 15 0 a7.5 7.5 0 1 0 -15 0zM415.95 75.6 a7.5 7.5 0 1 0 15 0 a7.5 7.5 0 1 0 -15 0zM415.95 150.6 a7.5 7.5 0 1 0 15 0 a7.5 7.5 0 1 0 -15 0zM351 188.1 a7.5 7.5 0 1 0 15 0 a7.5 7.5 0 1 0 -15 0zM351 263.1 a7.5 7.5 0 1 0 15 0 a7.5 7.5 0 1 0 -15 0zM286.05 300.6 a7.5 7.5 0 1 0 15 0 a7.5 7.5 0 1 0 -15 0zM221.09 263.1 a7.5 7.5 0 1 0 15 0 a7.5 7.5 0 1 0 -15 0zM286.05 375.6 a7.5 7.5 0 1 0 15 0 a7.5 7.5 0 1 0 -15 0zM351 413.1 a7.5 7.5 0 1 0 15 0 a7.5 7.5 0 1 0 -15 0zM351 488.1 a7.5 7.5 0 1 0 15 0 a7.5 7.5 0 1 0 -15 0zM286.05 525.6 a7.5 7.5 0 1 0 15 0 a7.5 7.5 0 1 0 -15 0zM415.95 -74.4 a7.5 7.5 0 1 0 15 0 a7.5 7.5 0 1 0 -15 0zM480.91 -36.9 a7.5 7.5 0 1 0 15 0 a7.5 7.5 0 1 0 -15 0zM480.91 38.1 a7.5 7.5 0 1 0 15 0 a7.5 7.5 0 1 0 -15 0zM480.91 488.1 a7.5 7.5 0 1 0 15 0 a7.5 7.5 0 1 0 -15 0zM545.86 525.6 a7.5 7.5 0 1 0 15 0 a7.5 7.5 0 1 0 -15 0zM545.86 600.6 a7.5 7.5 0 1 0 15 0 a7.5 7.5 0 1 0 -15 0zM480.91 638.1 a7.5 7.5 0 1 0 15 0 a7.5 7.5 0 1 0 -15 0zM415.95 600.6 a7.5 7.5 0 1 0 15 0 a7.5 7.5 0 1 0 -15 0zM415.95 525.6 a7.5 7.5 0 1 0 15 0 a7.5 7.5 0 1 0 -15 0zM545.86 -74.4 a7.5 7.5 0 1 0 15 0 a7.5 7.5 0 1 0 -15 0zM610.81 -36.9 a7.5 7.5 0 1 0 15 0 a7.5 7.5 0 1 0 -15 0zM610.81 38.1 a7.5 7.5 0 1 0 15 0 a7.5 7.5 0 1 0 -15 0zM545.86 75.6 a7.5 7.5 0 1 0 15 0 a7.5 7.5 0 1 0 -15 0zM610.81 488.1 a7.5 7.5 0 1 0 15 0 a7.5 7.5 0 1 0 -15 0zM675.77 525.6 a7.5 7.5 0 1 0 15 0 a7.5 7.5 0 1 0 -15 0zM675.77 600.6 a7.5 7.5 0 1 0 15 0 a7.5 7.5 0 1 0 -15 0zM610.81 638.1 a7.5 7.5 0 1 0 15 0 a7.5 7.5 0 1 0 -15 0zM740.72 263.1 a7.5 7.5 0 1 0 15 0 a7.5 7.5 0 1 0 -15 0zM805.68 300.6 a7.5 7.5 0 1 0 15 0 a7.5 7.5 0 1 0 -15 0zM805.68 375.6 a7.5 7.5 0 1 0 15 0 a7.5 7.5 0 1 0 -15 0zM740.72 413.1 a7.5 7.5 0 1 0 15 0 a7.5 7.5 0 1 0 -15 0zM675.77 375.6 a7.5 7.5 0 1 0 15 0 a7.5 7.5 0 1 0 -15 0zM675.77 300.6 a7.5 7.5 0 1 0 15 0 a7.5 7.5 0 1 0 -15 0zM870.63 38.1 a7.5 7.5 0 1 0 15 0 a7.5 7.5 0 1 0 -15 0zM935.58 75.6 a7.5 7.5 0 1 0 15 0 a7.5 7.5 0 1 0 -15 0zM935.58 150.6 a7.5 7.5 0 1 0 15 0 a7.5 7.5 0 1 0 -15 0zM870.63 188.1 a7.5 7.5 0 1 0 15 0 a7.5 7.5 0 1 0 -15 0zM805.67 150.6 a7.5 7.5 0 1 0 15 0 a7.5 7.5 0 1 0 -15 0zM805.67 75.6 a7.5 7.5 0 1 0 15 0 a7.5 7.5 0 1 0 -15 0zM935.58 -74.4 a7.5 7.5 0 1 0 15 0 a7.5 7.5 0 1 0 -15 0zM1000.54 -36.9 a7.5 7.5 0 1 0 15 0 a7.5 7.5 0 1 0 -15 0zM1000.54 38.1 a7.5 7.5 0 1 0 15 0 a7.5 7.5 0 1 0 -15 0zM870.63 -36.9 a7.5 7.5 0 1 0 15 0 a7.5 7.5 0 1 0 -15 0zM1000.54 188.1 a7.5 7.5 0 1 0 15 0 a7.5 7.5 0 1 0 -15 0zM1000.54 263.1 a7.5 7.5 0 1 0 15 0 a7.5 7.5 0 1 0 -15 0zM935.58 300.6 a7.5 7.5 0 1 0 15 0 a7.5 7.5 0 1 0 -15 0zM870.63 263.1 a7.5 7.5 0 1 0 15 0 a7.5 7.5 0 1 0 -15 0zM1065.49 300.6 a7.5 7.5 0 1 0 15 0 a7.5 7.5 0 1 0 -15 0zM1065.49 375.6 a7.5 7.5 0 1 0 15 0 a7.5 7.5 0 1 0 -15 0zM1000.54 413.1 a7.5 7.5 0 1 0 15 0 a7.5 7.5 0 1 0 -15 0zM935.58 375.6 a7.5 7.5 0 1 0 15 0 a7.5 7.5 0 1 0 -15 0zM1000.54 488.1 a7.5 7.5 0 1 0 15 0 a7.5 7.5 0 1 0 -15 0zM935.58 525.6 a7.5 7.5 0 1 0 15 0 a7.5 7.5 0 1 0 -15 0zM870.63 488.1 a7.5 7.5 0 1 0 15 0 a7.5 7.5 0 1 0 -15 0zM870.63 413.1 a7.5 7.5 0 1 0 15 0 a7.5 7.5 0 1 0 -15 0zM1065.49 150.6 a7.5 7.5 0 1 0 15 0 a7.5 7.5 0 1 0 -15 0zM1130.44 188.1 a7.5 7.5 0 1 0 15 0 a7.5 7.5 0 1 0 -15 0zM1130.44 263.1 a7.5 7.5 0 1 0 15 0 a7.5 7.5 0 1 0 -15 0zM1195.4 -74.4 a7.5 7.5 0 1 0 15 0 a7.5 7.5 0 1 0 -15 0zM1260.35 -36.9 a7.5 7.5 0 1 0 15 0 a7.5 7.5 0 1 0 -15 0zM1260.35 38.1 a7.5 7.5 0 1 0 15 0 a7.5 7.5 0 1 0 -15 0zM1195.4 75.6 a7.5 7.5 0 1 0 15 0 a7.5 7.5 0 1 0 -15 0zM1130.44 38.1 a7.5 7.5 0 1 0 15 0 a7.5 7.5 0 1 0 -15 0zM1130.44 -36.9 a7.5 7.5 0 1 0 15 0 a7.5 7.5 0 1 0 -15 0zM1195.4 150.6 a7.5 7.5 0 1 0 15 0 a7.5 7.5 0 1 0 -15 0zM1260.35 188.1 a7.5 7.5 0 1 0 15 0 a7.5 7.5 0 1 0 -15 0zM1260.35 263.1 a7.5 7.5 0 1 0 15 0 a7.5 7.5 0 1 0 -15 0zM1195.4 300.6 a7.5 7.5 0 1 0 15 0 a7.5 7.5 0 1 0 -15 0zM1325.3 300.6 a7.5 7.5 0 1 0 15 0 a7.5 7.5 0 1 0 -15 0zM1325.3 375.6 a7.5 7.5 0 1 0 15 0 a7.5 7.5 0 1 0 -15 0zM1260.35 413.1 a7.5 7.5 0 1 0 15 0 a7.5 7.5 0 1 0 -15 0zM1195.4 375.6 a7.5 7.5 0 1 0 15 0 a7.5 7.5 0 1 0 -15 0zM1260.35 488.1 a7.5 7.5 0 1 0 15 0 a7.5 7.5 0 1 0 -15 0zM1195.4 525.6 a7.5 7.5 0 1 0 15 0 a7.5 7.5 0 1 0 -15 0zM1130.44 488.1 a7.5 7.5 0 1 0 15 0 a7.5 7.5 0 1 0 -15 0zM1130.44 413.1 a7.5 7.5 0 1 0 15 0 a7.5 7.5 0 1 0 -15 0zM1325.3 525.6 a7.5 7.5 0 1 0 15 0 a7.5 7.5 0 1 0 -15 0zM1325.3 600.6 a7.5 7.5 0 1 0 15 0 a7.5 7.5 0 1 0 -15 0zM1260.35 638.1 a7.5 7.5 0 1 0 15 0 a7.5 7.5 0 1 0 -15 0zM1195.4 600.6 a7.5 7.5 0 1 0 15 0 a7.5 7.5 0 1 0 -15 0zM1520.17 38.1 a7.5 7.5 0 1 0 15 0 a7.5 7.5 0 1 0 -15 0zM1585.12 75.6 a7.5 7.5 0 1 0 15 0 a7.5 7.5 0 1 0 -15 0zM1585.12 150.6 a7.5 7.5 0 1 0 15 0 a7.5 7.5 0 1 0 -15 0zM1520.17 188.1 a7.5 7.5 0 1 0 15 0 a7.5 7.5 0 1 0 -15 0zM1455.21 150.6 a7.5 7.5 0 1 0 15 0 a7.5 7.5 0 1 0 -15 0zM1455.21 75.6 a7.5 7.5 0 1 0 15 0 a7.5 7.5 0 1 0 -15 0zM1520.17 263.1 a7.5 7.5 0 1 0 15 0 a7.5 7.5 0 1 0 -15 0zM1455.21 300.6 a7.5 7.5 0 1 0 15 0 a7.5 7.5 0 1 0 -15 0zM1390.26 263.1 a7.5 7.5 0 1 0 15 0 a7.5 7.5 0 1 0 -15 0zM1390.26 188.1 a7.5 7.5 0 1 0 15 0 a7.5 7.5 0 1 0 -15 0z" fill="rgba(67, 97, 238, 1)"></path><path d="M90.64 -8.38L133.94 16.62L133.94 66.62L90.64 91.62L47.33 66.62L47.33 16.62zM133.94 366.62L177.24 391.62L177.24 441.62L133.94 466.62L90.64 441.62L90.64 391.62zM263.84 441.62L307.15 466.62L307.15 516.62L263.84 541.62L220.54 516.62L220.54 466.62zM307.15 516.62L350.45 541.62L350.45 591.62L307.15 616.62L263.84 591.62L263.84 541.62zM566.96 66.62L610.26 91.62L610.26 141.62L566.96 166.62L523.66 141.62L523.66 91.62zM610.26 291.62L653.57 316.62L653.57 366.62L610.26 391.62L566.96 366.62L566.96 316.62zM740.17 66.62L783.48 91.62L783.48 141.62L740.17 166.62L696.87 141.62L696.87 91.62zM696.87 141.62L740.17 166.62L740.17 216.62L696.87 241.62L653.57 216.62L653.57 166.62zM826.78 216.62L870.08 241.62L870.08 291.62L826.78 316.62L783.48 291.62L783.48 241.62zM826.78 366.62L870.08 391.62L870.08 441.62L826.78 466.62L783.48 441.62L783.48 391.62zM870.08 -8.38L913.38 16.62L913.38 66.62L870.08 91.62L826.78 66.62L826.78 16.62zM999.99 216.62L1043.29 241.62L1043.29 291.62L999.99 316.62L956.69 291.62L956.69 241.62zM956.69 291.62L999.99 316.62L999.99 366.62L956.69 391.62L913.38 366.62L913.38 316.62zM1043.29 141.62L1086.59 166.62L1086.59 216.62L1043.29 241.62L999.99 216.62L999.99 166.62zM1129.89 141.62L1173.2 166.62L1173.2 216.62L1129.89 241.62L1086.59 216.62L1086.59 166.62zM1259.8 66.62L1303.11 91.62L1303.11 141.62L1259.8 166.62L1216.5 141.62L1216.5 91.62zM1216.5 441.62L1259.8 466.62L1259.8 516.62L1216.5 541.62L1173.2 516.62L1173.2 466.62zM1303.11 -8.38L1346.41 16.62L1346.41 66.62L1303.11 91.62L1259.8 66.62L1259.8 16.62zM1433.01 516.62L1476.32 541.62L1476.32 591.62L1433.01 616.62L1389.71 591.62L1389.71 541.62z" stroke="rgba(63, 55, 201, 1)" stroke-width="2"></path></g><defs><mask id="SvgjsMask1003"><rect width="1440" height="560" fill="#ffffff"></rect></mask></defs></svg>